<svg height="512pt" viewBox="0 0 512 512.00083" width="512pt" xmlns="http://www.w3.org/2000/svg"><path d="m504.375 256c0 137.1875-111.214844 248.402344-248.402344 248.402344s-248.398437-111.214844-248.398437-248.402344 111.210937-248.398438 248.398437-248.398438 248.402344 111.210938 248.402344 248.398438zm0 0" fill="#c6e3f7"/><path d="m10.921875 215.957031 89.394531-49.824219-1.546875-102.332031-.097656-.054687c-45.808594 37.523437-77.964844 91.101562-87.875 152.140625zm0 0" fill="#57565c"/><path d="m333.289062 19.871094c50.484376 45.464844 82.226563 111.34375 82.226563 184.632812 0 137.1875-111.214844 248.398438-248.402344 248.398438-26.992187 0-52.980469-4.304688-77.3125-12.265625 44.011719 39.636719 102.277344 63.765625 166.171875 63.765625 137.1875 0 248.402344-111.214844 248.402344-248.402344 0-110.191406-71.753906-203.628906-171.085938-236.128906zm0 0" fill="#aacee0"/><path d="m168.125 256v-48.46875l87.847656-52.503906 87.851563 52.503906v96.9375l-87.851563 52.507812-87.847656-52.507812zm0 0" fill="#57565c"/><path d="m306.460938 185.203125v75.148437c0 14.210938-7.46875 27.378907-19.667969 34.667969l-67.238281 40.1875 36.417968 21.769531 87.851563-52.507812v-96.9375zm0 0" fill="#424144"/><path d="m100.316406 345.867188-89.394531-49.824219-.125.070312c9.910156 61.042969 42.066406 114.617188 87.875 152.144531l.097656-.058593zm0 0" fill="#57565c"/><path d="m501.027344 296.042969-89.398438 49.828125 1.546875 102.332031.097657.054687c45.8125-37.523437 77.964843-91.101562 87.878906-152.140624zm0 0" fill="#424144"/><path d="m343.824219 23.757812v-.175781c-27.3125-10.328125-56.921875-15.980469-87.851563-15.980469-30.929687 0-60.535156 5.652344-87.847656 15.980469v.175781l87.847656 52.507813zm0 0" fill="#57565c"/><path d="m343.824219 488.417969v-.175781l-87.851563-52.503907-87.847656 52.503907v.175781c27.3125 10.328125 56.917969 15.984375 87.847656 15.984375 30.929688 0 60.539063-5.65625 87.851563-15.984375zm0 0" fill="#424144"/><path d="m411.628906 166.132812 89.398438 49.824219.125-.070312c-9.914063-61.039063-42.066406-114.617188-87.878906-152.140625l-.097657.054687zm0 0" fill="#424144"/><path d="m437.75 436.203125c6.132812-6.179687 11.964844-12.664063 17.433594-19.441406 36.769531-45.386719 56.761718-101.535157 56.761718-160.761719 0-59.207031-19.980468-115.335938-56.726562-160.71875-15.042969-18.613281-32.710938-35.136719-52.277344-48.914062-18.242187-12.847657-38.171875-23.28125-59.136718-30.921876-21.796876-7.945312-44.585938-12.753906-67.695313-14.628906-18.269531-1.480468-36.796875-.941406-54.953125 1.554688-28.285156 3.816406-55.5 12.304687-81.242188 25.421875-16.0625 8.183593-31.261718 18.144531-45.292968 29.558593-.496094.3125-.953125.6875-1.367188 1.113282-15.550781 12.828125-29.632812 27.453125-41.761718 43.53125-2.515626 3.339844-1.851563 8.089844 1.488281 10.609375 3.339843 2.515625 8.089843 1.851562 10.605469-1.488281 8.496093-11.265626 17.824218-21.636719 27.855468-31.070313l1.234375 81.675781-71.246093 39.707032c4.605468-19.859376 11.679687-39.105469 21.125-57.113282 1.941406-3.703125.515624-8.28125-3.191407-10.226562-3.703125-1.941406-8.28125-.511719-10.222656 3.191406-12.554687 23.933594-21.207031 49.910156-25.65625 76.65625-.132813.507812-.214844 1.019531-.242187 1.535156-2.144532 13.375-3.242188 26.9375-3.242188 40.527344 0 59.234375 19.996094 115.386719 56.773438 160.777344 15.074218 18.644531 32.789062 35.191406 52.40625 48.980468 18.273437 12.847657 38.234374 23.273438 59.230468 30.898438 21.835938 7.929688 44.664063 12.710938 67.8125 14.558594 24.644532 1.964844 49.664063.222656 73.832032-4.949219 21.8125-4.667969 42.992187-12.222656 62.828124-22.425781 20.039063-10.3125 38.847657-23.304688 55.425782-38.582032 3.210937-2.953124 6.371094-5.957031 9.441406-9.054687 1.035156-1.042969-.261719.265625 0 0zm-93.109375 43.707031-81.09375-48.46875v-70.167968l80.234375-47.957032 60.339844 36.839844 1.425781 94.449219c-18.328125 14.566406-38.816406 26.527343-60.90625 35.304687zm-76.054687 16.585938c-.273438.015625-.542969.027344-.816407.039062-1.589843.078125-3.183593.136719-4.777343.179688-.472657.015625-.941407.03125-1.414063.039062-1.863281.042969-3.730469.070313-5.605469.070313s-3.738281-.027344-5.601562-.070313c-.472656-.011718-.945313-.023437-1.417969-.039062-1.59375-.042969-3.1875-.101563-4.777344-.179688-.269531-.011718-.542969-.023437-.816406-.039062-19.871094-1.027344-39.109375-4.488282-57.433594-10.070313l70.046875-41.867187 70.046875 41.867187c-18.324219 5.582031-37.558593 9.042969-57.433593 10.070313zm-162.1875-51.890625 1.429687-94.449219 60.339844-36.839844 80.230469 47.957032v70.167968l-81.09375 48.46875c-22.089844-8.777344-42.578126-20.738281-60.90625-35.304687zm-85.019532-134.0625 71.296875 39.738281-1.230469 81.40625c-34.214843-32.058594-59.101562-73.957031-70.066406-121.144531zm202.761719-293.285157c14.726563-1.921874 29.613281-2.519531 44.445313-1.753906 19.875 1.03125 39.109374 4.492188 57.433593 10.070313l-70.046875 41.867187-70.113281-41.90625c12.515625-3.804687 25.300781-6.566406 38.28125-8.277344.398437-.050781-12.980469 1.710938 0 0zm39.40625 63.304688 81.09375-48.472656c22.089844 8.777344 42.578125 20.738281 60.910156 35.308594l-1.429687 94.445312-60.339844 36.839844-80.234375-47.953125zm233.253906 175.4375c0 11.945312-.886719 23.679688-2.578125 35.164062l-82.421875 45.9375-60.40625-36.882812v-88.4375l60.40625-36.882812 82.421875 45.9375c1.691406 11.484374 2.578125 23.222656 2.578125 35.164062zm-6.230469-54.539062-71.300781-39.738282 1.230469-81.410156c34.214844 32.058594 59.101562 73.960938 70.070312 121.148438zm-71.300781 148.820312 71.300781-39.738281c-10.96875 47.1875-35.855468 89.085937-70.070312 121.144531zm-252.179687-318.320312 81.308594 48.601562v70.167969l-80.230469 47.957031-60.339844-36.84375-1.433594-94.730469c18.46875-14.710937 38.890625-26.535156 60.695313-35.152343zm-66.945313 142.9375 60.40625 36.882812v18.976562c0 4.179688 3.390625 7.570313 7.574219 7.570313 4.179688 0 7.574219-3.390625 7.574219-7.570313v-18.929687l80.273437-47.980469 80.277344 47.980469v88.34375l-80.277344 47.980469-80.273437-47.980469v-34.074219c0-4.183594-3.390625-7.574218-7.574219-7.574218-4.179688 0-7.574219 3.390624-7.574219 7.574218v34.121094l-60.40625 36.882812-82.421875-45.9375c-1.6875-11.484374-2.574218-23.222656-2.574218-35.164062 0-11.789062.882812-23.550781 2.597656-35.175781zm0 0"/></svg>